<?xml version="1.0" standalone="no"?>
<!DOCTYPE svg PUBLIC "-//W3C//DTD SVG 20010904//EN"
 "http://www.w3.org/TR/2001/REC-SVG-20010904/DTD/svg10.dtd">
<svg version="1.0" xmlns="http://www.w3.org/2000/svg"
 width="500.000000pt" height="500.000000pt" viewBox="0 0 500.000000 500.000000"
 preserveAspectRatio="xMidYMid meet">
<metadata>
Created by potrace 1.14, written by Peter Selinger 2001-2017
</metadata>
<g transform="translate(0.000000,500.000000) scale(0.100000,-0.100000)"
fill="#000000" stroke="none">
<path d="M2039 4576 c-2 -2 -40 -7 -83 -10 -516 -43 -1012 -310 -1349 -726
-182 -226 -332 -532 -394 -805 -18 -82 -43 -234 -49 -305 -14 -150 -8 -458 11
-560 1 -8 6 -35 10 -60 102 -646 527 -1219 1109 -1494 284 -135 543 -190 896
-190 196 -1 293 6 425 29 488 85 909 288 1171 565 104 109 113 76 -92 326 -99
121 -211 257 -249 304 -38 47 -100 123 -139 170 -38 47 -70 86 -71 88 -1 1
-46 -40 -99 -93 -162 -159 -320 -249 -524 -301 -161 -41 -377 -49 -512 -19
-14 4 -35 8 -48 11 -43 9 -157 55 -212 86 -258 145 -441 413 -485 708 -3 20
-8 47 -10 60 -8 37 -8 217 -1 285 43 402 282 719 628 833 125 41 141 43 303
48 147 3 226 -7 360 -47 168 -50 371 -176 522 -325 l73 -73 73 87 c40 48 82
98 94 112 12 14 63 75 113 135 50 61 109 130 130 155 21 25 77 92 126 150 48
58 94 111 101 118 7 7 13 17 13 21 0 32 -201 231 -317 314 -244 174 -559 304
-883 363 -8 2 -35 6 -60 9 -52 7 -93 13 -135 20 -34 7 -441 16 -446 11z"/>
<path d="M4385 1173 c-110 -25 -193 -94 -244 -202 -23 -51 -26 -67 -26 -176 0
-111 2 -125 28 -181 55 -118 155 -183 295 -189 43 -2 98 1 122 7 25 5 50 11
55 12 28 5 107 61 140 98 79 92 108 218 81 360 -22 117 -89 205 -188 250 -70
31 -179 40 -263 21z"/>
</g>
</svg>
