<svg id="Calque_1" data-name="Calque 1" xmlns="http://www.w3.org/2000/svg" viewBox="0 0 2000 2000"><defs><style>.cls-1{fill:#fff;}</style></defs><path class="cls-1" d="M1511.08,566.44,1302.7,815.5a496.84,496.84,0,0,0-79.07-71.86A377,377,0,0,0,1122.94,691a347.33,347.33,0,0,0-115-19.19q-91.1,0-160.56,41.94A285.73,285.73,0,0,0,739.54,830q-38.37,74.28-38.38,170,0,91.08,39.56,165.38a303,303,0,0,0,109,117.41q69.56,43.11,158.18,43.11a402.14,402.14,0,0,0,115-15.58,329.15,329.15,0,0,0,97.17-46.72,435.84,435.84,0,0,0,82.67-76.68l206,251.49h0q-81.62,103-226.72,163a805.73,805.73,0,0,1-310,60h0q-184.53,0-330.73-86.28A630.44,630.44,0,0,1,410.08,1339q-85-149.79-85-339.15t85-339.06A631,631,0,0,1,641.2,424.86q146.16-86.25,330.73-86.28,170,0,312.75,59.92t226.4,167.65Zm274.62,884.18q-31.17-31.87-86.72-31.88-51.54,0-84.07,33.89t-32.54,88.13q0,58.26,30.54,89.47t86.09,31.19q52.83,0,85.37-33.89t32.54-86.77Q1816.87,1482.5,1785.7,1450.62Z"/></svg>