<svg id="Calque_1" data-name="Calque 1" xmlns="http://www.w3.org/2000/svg" xmlns:xlink="http://www.w3.org/1999/xlink" viewBox="0 0 2000 2000"><defs><style>.cls-1{fill:url(#Dégradé_sans_nom);}</style><linearGradient id="Dégradé_sans_nom" x1="631.02" y1="-206.39" x2="1587.49" y2="-1162.87" gradientTransform="translate(0 1800)" gradientUnits="userSpaceOnUse"><stop offset="0" stop-color="#591ce6"/><stop offset="0.08" stop-color="#5d1ee4"/><stop offset="0.16" stop-color="#6a22dd"/><stop offset="0.24" stop-color="#7e2ad1"/><stop offset="0.32" stop-color="#9b35c1"/><stop offset="0.4" stop-color="#c144ac"/><stop offset="0.48" stop-color="#ee5593"/><stop offset="0.5" stop-color="#f9598d"/><stop offset="0.57" stop-color="#fa6682"/><stop offset="0.72" stop-color="#fa7a70"/><stop offset="0.86" stop-color="#fb8765"/><stop offset="1" stop-color="#fb8b61"/></linearGradient></defs><path class="cls-1" d="M1511.08,566.44,1302.7,815.5a496.84,496.84,0,0,0-79.07-71.86A377,377,0,0,0,1122.94,691a347.33,347.33,0,0,0-115-19.19q-91.1,0-160.56,41.94A285.73,285.73,0,0,0,739.54,830q-38.37,74.28-38.38,170,0,91.08,39.56,165.38a303,303,0,0,0,109,117.41q69.56,43.11,158.18,43.11a402.14,402.14,0,0,0,115-15.58,329.15,329.15,0,0,0,97.17-46.72,435.84,435.84,0,0,0,82.67-76.68l206,251.49h0q-81.62,103-226.72,163a805.73,805.73,0,0,1-310,60h0q-184.53,0-330.73-86.28A630.44,630.44,0,0,1,410.08,1339q-85-149.79-85-339.15t85-339.06A631,631,0,0,1,641.2,424.86q146.16-86.25,330.73-86.28,170,0,312.75,59.92t226.4,167.65Zm274.62,884.18q-31.17-31.87-86.72-31.88-51.54,0-84.07,33.89t-32.54,88.13q0,58.26,30.54,89.47t86.09,31.19q52.83,0,85.37-33.89t32.54-86.77Q1816.87,1482.5,1785.7,1450.62Z"/></svg>