<?xml version="1.0" encoding="utf-8"?>
<!-- Generator: Adobe Illustrator 25.0.1, SVG Export Plug-In . SVG Version: 6.00 Build 0)  -->
<svg version="1.1" id="Calque_1" xmlns="http://www.w3.org/2000/svg" xmlns:xlink="http://www.w3.org/1999/xlink" x="0px" y="0px"
	 viewBox="0 0 2000 2000" style="enable-background:new 0 0 2000 2000;" xml:space="preserve">
<style type="text/css">
	.st0{fill:url(#SVGID_1_);}
</style>
<g>
	<path d="M82.7,1236.4c6.4-6.7,15.2-10.4,24.5-10.4c3.1,0,6.2,0.5,9.1,1.5c3.1,1.1,6.1,2.5,8.9,4.4c3.1,2.1,6,4.5,8.7,7.2l10.7-11.1
		c-2.6-3.6-5.9-6.7-9.6-9.2c-8.2-5.6-17.8-8.6-27.8-8.7c-6.8-0.1-13.6,1.3-19.8,4c-6.1,2.6-11.6,6.5-16.1,11.2
		c-9.6,10.1-14.9,23.5-14.8,37.4c-0.1,7.3,1.1,14.6,3.6,21.5c2.3,6.3,5.8,12.1,10.3,17c4.4,4.7,9.7,8.5,15.7,11
		c6.3,2.6,13,3.9,19.8,3.8c4.9,0,9.7-0.6,14.4-1.8c4.5-1.1,8.9-2.9,13-5.1c3.5-1.8,6.6-4.3,9.2-7.2l-8-13c-2.3,2.3-4.8,4.3-7.6,5.9
		c-5.6,3.4-12,5.2-18.5,5.2c-5,0.1-9.9-0.8-14.6-2.6c-4.3-1.6-8.1-4.2-11.3-7.5c-3.2-3.4-5.7-7.4-7.3-11.8
		c-1.8-4.9-2.7-10.1-2.6-15.3c-0.1-5,0.9-10,2.7-14.7C77,1243.8,79.5,1239.8,82.7,1236.4z"/>
	<path d="M198,1235.3c-3.7,0-7.3,0.9-10.6,2.7c-3.4,1.8-6.5,4.3-9,7.2c-1.6,1.9-3,4-4.1,6.3v-14.6h-15.4v77.7h15.4v-42.9
		c0-2.7,0.5-5.4,1.6-7.9c1.1-2.4,2.5-4.5,4.4-6.4c1.8-1.8,4-3.3,6.4-4.3c2.4-1,5-1.6,7.6-1.6c1.4,0,2.8,0.2,4.2,0.5
		c1.3,0.3,2.6,0.7,3.9,1.3l4-16.6c-1.2-0.5-2.4-0.8-3.6-1C201.2,1235.4,199.6,1235.3,198,1235.3z"/>
	<path d="M274.1,1245.9c-3.2-3.4-7.1-6-11.3-7.9c-4.4-1.9-9.2-2.9-14.1-2.9c-5.4-0.1-10.9,1-15.9,3c-4.8,1.9-9,4.9-12.6,8.6
		c-3.6,3.8-6.3,8.2-8.2,13.1c-2,5.3-3.1,11-3,16.7c-0.1,7.2,1.7,14.2,5.2,20.4c3.5,5.9,8.5,10.7,14.5,14c6.5,3.5,13.8,5.3,21.2,5.1
		c3.8,0,7.5-0.5,11.2-1.6c3.7-1,7.4-2.4,10.8-4.2c3.2-1.6,6.1-3.7,8.7-6.2l-7.7-10.8c-3.2,2.9-6.8,5.3-10.7,7
		c-3.4,1.3-7.1,2-10.7,1.9c-5,0.1-9.9-1-14.4-3.3c-4-2.1-7.4-5.3-9.6-9.2c-1.8-3.2-2.9-6.7-3.2-10.3h59.4l0.1-6.5
		c0.2-5.1-0.7-10.2-2.4-15C279.9,1253.4,277.4,1249.4,274.1,1245.9z M235.3,1252.2c4.2-2.1,8.8-3.2,13.5-3c6.5,0,12.6,3,16.4,8.3
		c1.9,2.6,3,5.6,3.2,8.7v1H225c0.4-2.1,1.1-4.2,2-6.1C228.8,1257.3,231.7,1254.2,235.3,1252.2L235.3,1252.2z"/>
	<path d="M356.1,1248.8c-3.4-5.5-8.5-9.7-14.6-11.8c-3.6-1.2-7.3-1.8-11.1-1.8c-6.5-0.1-12.9,1.7-18.4,5.2c-5.5,3.5-10,8.4-13,14.3
		c-3.3,6.4-4.9,13.6-4.8,20.8c-0.1,7.2,1.5,14.3,4.7,20.7c2.9,5.8,7.3,10.8,12.6,14.5c5.2,3.5,11.3,5.4,17.5,5.3
		c3.7,0,7.3-0.6,10.7-1.8c3.3-1.1,6.4-2.7,9.3-4.7c2.7-1.8,5.1-4.1,7-6.7c0,0,0.1-0.1,0.1-0.1v11.9h15.4v-77.7h-15.5V1248.8z
		 M353.6,1289.2c-1.9,3.8-4.8,7.1-8.4,9.4c-3.7,2.3-7.9,3.5-12.3,3.4c-4.3,0.1-8.5-1.1-12.1-3.4c-3.6-2.3-6.4-5.6-8.3-9.4
		c-2.1-4.3-3.1-9-3-13.7c-0.1-4.7,0.9-9.3,3-13.5c1.9-3.8,4.7-7,8.3-9.3c3.6-2.3,7.8-3.5,12.1-3.4c4.3-0.1,8.6,1.1,12.3,3.4
		c3.6,2.3,6.5,5.5,8.4,9.3c2.1,4.2,3.1,8.8,3,13.5C356.7,1280.2,355.7,1284.9,353.6,1289.2z"/>
	<polygon points="416.1,1217.1 400.9,1217.1 400.9,1236.9 384.8,1236.9 384.8,1251.7 400.9,1251.7 400.9,1314.6 416.1,1314.6 
		416.1,1251.7 434.2,1251.7 434.2,1236.9 416.1,1236.9 	"/>
	<path d="M456.5,1200.5c-2.7-0.1-5.4,0.8-7.5,2.7c-3.6,4-3.7,10-0.1,14.1c1.8,1.7,4.3,2.5,7.5,2.5c2.7,0.1,5.4-0.8,7.5-2.7
		c3.6-4,3.6-10,0.1-14C462.3,1201.3,459.8,1200.5,456.5,1200.5z"/>
	<rect x="449.1" y="1236.9" width="15.2" height="77.7"/>
	<polygon points="517.9,1292.3 495.3,1236.9 478.9,1236.9 511.7,1314.6 522.7,1314.6 557.2,1236.9 541.5,1236.9 	"/>
	<path d="M627.7,1245.9c-3.2-3.4-7.1-6-11.3-7.9c-4.4-1.9-9.2-2.9-14.1-2.9c-5.4-0.1-10.9,1-15.9,3c-4.8,1.9-9,4.9-12.6,8.6
		c-3.6,3.8-6.3,8.2-8.2,13.1c-2,5.3-3.1,11-3,16.7c-0.1,7.2,1.7,14.3,5.3,20.5c3.5,5.9,8.5,10.7,14.5,14c6.5,3.5,13.8,5.3,21.2,5.1
		c3.8,0,7.5-0.5,11.2-1.6c3.7-1,7.4-2.4,10.8-4.2c3.2-1.6,6.1-3.7,8.7-6.2l-7.7-10.8c-3.2,2.9-6.8,5.3-10.7,7
		c-3.4,1.3-7.1,2-10.7,1.9c-5,0.1-9.9-1-14.3-3.3c-4-2.1-7.4-5.3-9.6-9.2c-1.8-3.2-2.9-6.7-3.2-10.3h59.4l0.2-6.5
		c0.2-5.1-0.7-10.2-2.4-15C633.5,1253.5,631,1249.4,627.7,1245.9z M588.8,1252.2c4.2-2.1,8.8-3.2,13.5-3c6.5,0,12.6,3,16.4,8.3
		c1.9,2.6,3,5.6,3.2,8.7v1h-43.5c0.4-2.1,1.1-4.2,2-6.1C582.3,1257.3,585.2,1254.2,588.8,1252.2L588.8,1252.2z"/>
	<polygon points="692.6,1225.8 709.3,1225.8 709.3,1299.8 692.6,1299.8 692.6,1314.6 742,1314.6 742,1299.8 725.3,1299.8 
		725.3,1225.8 742,1225.8 742,1211 692.6,1211 	"/>
	<polygon points="756.4,1226.4 785.4,1226.4 785.4,1314.6 801.4,1314.6 801.4,1226.4 831.2,1226.4 831.2,1211 756.4,1211 	"/>
	<path d="M945.9,1245.9c-3.2-3.4-7.1-6-11.3-7.9c-4.4-1.9-9.2-2.9-14.1-2.9c-5.4-0.1-10.9,1-15.9,3c-4.8,1.9-9,4.9-12.6,8.6
		c-3.6,3.8-6.3,8.2-8.2,13.1c-2,5.3-3.1,11-3,16.7c-0.1,7.2,1.7,14.2,5.2,20.4c3.5,5.9,8.5,10.7,14.5,14c6.5,3.5,13.8,5.3,21.2,5.1
		c3.8,0,7.5-0.5,11.2-1.6c3.7-1,7.4-2.4,10.8-4.2c3.2-1.6,6.1-3.7,8.7-6.2l-7.7-10.8c-3.2,2.9-6.8,5.3-10.7,7
		c-3.4,1.3-7.1,2-10.7,1.9c-5,0.1-9.9-1-14.4-3.3c-4-2.1-7.4-5.3-9.6-9.2c-1.8-3.2-2.8-6.7-3.2-10.3h59.4l0.2-6.5
		c0.1-5.1-0.7-10.2-2.4-15C951.6,1253.4,949.1,1249.4,945.9,1245.9z M907,1252.2c4.2-2.1,8.8-3.2,13.5-3c6.5,0,12.6,3,16.4,8.3
		c1.9,2.6,3,5.6,3.3,8.7v1h-43.4c0.4-2.1,1.1-4.2,2-6.1C900.5,1257.3,903.4,1254.2,907,1252.2z"/>
	<path d="M1026.3,1238.7c-3.9-2.3-8.9-3.5-14.8-3.5c-4.2,0-8.3,0.9-12.1,2.7c-3.8,1.7-7.3,4.1-10.2,7.1c-1.2,1.2-2.2,2.4-3.1,3.8
		v-12h-15.3v77.7H986v-47.1c0-2.5,0.5-4.9,1.5-7.2c1-2.2,2.5-4.2,4.3-5.8c1.9-1.7,4.1-3,6.4-3.9c2.6-1,5.4-1.4,8.1-1.4
		c3.2-0.3,6.3,0.3,9.2,1.7c2.5,1.4,4.5,3.7,5.5,6.4c1.3,3.5,1.9,7.3,1.8,11v46.3h15.2v-47.4c0-7.2-1-13.2-3-17.9
		C1033.5,1244.9,1030.3,1241.2,1026.3,1238.7z"/>
	<path d="M1116.9,1247.5c-1.1-1.3-2.2-2.5-3.6-3.6c-2-1.6-4.1-3.1-6.4-4.4c-2.4-1.4-5-2.4-7.7-3.1c-2.8-0.7-5.7-1.1-8.6-1.1
		c-6.8-0.1-13.6,1.7-19.5,5.2c-5.7,3.5-10.4,8.4-13.6,14.4c-6.6,13.1-6.6,28.5,0.1,41.6c3.2,5.9,7.9,10.9,13.7,14.4
		c6,3.6,12.8,5.4,19.8,5.2c4.3,0,8.5-0.9,12.4-2.7c3.8-1.6,7.2-4,10.1-6.9c1.2-1.3,2.3-2.7,3.2-4.2v9.3c0.1,4.5-0.8,8.9-2.8,12.9
		c-1.9,3.4-4.8,6.2-8.3,7.8c-4.3,1.9-8.9,2.8-13.6,2.7c-2.9,0-5.9-0.4-8.7-1c-2.9-0.6-5.7-1.5-8.4-2.7c-2.5-1-4.8-2.3-7-3.9
		l-5.6,11.8c3.9,3.1,8.4,5.4,13.2,6.7c5.3,1.7,10.9,2.6,16.5,2.6c5.7,0.1,11.3-0.8,16.7-2.6c4.7-1.6,9-4.2,12.6-7.6
		c3.5-3.4,6.2-7.5,7.9-12.1c1.9-5.3,2.8-10.9,2.7-16.5v-72.9h-15.2L1116.9,1247.5z M1105.6,1298.6c-3.9,2.3-8.4,3.5-12.9,3.4
		c-9,0.2-17.3-4.8-21.4-12.8c-4.2-8.5-4.2-18.6,0-27.1c2-3.9,5-7.1,8.7-9.5c3.8-2.3,8.2-3.6,12.7-3.5c9-0.2,17.4,4.7,21.5,12.8
		c4.2,8.6,4.2,18.7,0.1,27.3C1112.4,1293.1,1109.3,1296.4,1105.6,1298.6z"/>
	<rect x="1154.5" y="1236.9" width="15.2" height="77.7"/>
	<path d="M1161.8,1200.5c-2.7-0.1-5.4,0.8-7.5,2.7c-3.6,4-3.7,10-0.1,14.1c1.8,1.7,4.3,2.5,7.5,2.5c2.8,0.1,5.4-0.8,7.5-2.7
		c3.6-4,3.6-10,0.1-14C1167.6,1201.3,1165.1,1200.5,1161.8,1200.5z"/>
	<path d="M1247.1,1238.7c-3.9-2.3-8.9-3.5-14.8-3.5c-4.2,0-8.3,0.9-12.1,2.7c-3.8,1.7-7.3,4.1-10.2,7.1c-1.2,1.2-2.2,2.5-3.1,3.8
		v-12h-15.2v77.7h15.2v-47.1c0-2.5,0.5-4.9,1.6-7.2c1-2.2,2.5-4.2,4.3-5.8c1.9-1.7,4.1-3,6.4-3.9c2.6-1,5.4-1.4,8.1-1.4
		c3.2-0.3,6.3,0.3,9.2,1.7c2.5,1.4,4.5,3.7,5.5,6.4c1.3,3.5,1.9,7.3,1.8,11v46.3h15.2v-47.4c0-7.2-1-13.2-3-17.9
		C1254.2,1244.9,1251.1,1241.2,1247.1,1238.7z"/>
	<path d="M1338.5,1245.9c-3.2-3.4-7.1-6-11.3-7.9c-4.4-1.9-9.2-2.9-14.1-2.9c-5.4-0.1-10.9,1-15.9,3c-4.8,1.9-9,4.9-12.6,8.6
		c-3.6,3.8-6.3,8.2-8.2,13.1c-2,5.3-3.1,11-3,16.7c-0.1,7.2,1.7,14.2,5.2,20.4c3.5,5.9,8.5,10.7,14.5,14c6.5,3.5,13.8,5.3,21.2,5.1
		c3.8,0,7.5-0.5,11.2-1.6c3.7-1,7.4-2.4,10.8-4.2c3.2-1.6,6.1-3.7,8.7-6.2l-7.7-10.8c-3.2,2.9-6.8,5.3-10.7,7
		c-3.4,1.3-7.1,2-10.7,1.9c-5,0.1-9.9-1-14.4-3.3c-4-2.1-7.4-5.3-9.6-9.2c-1.8-3.2-2.9-6.7-3.2-10.3h59.4l0.2-6.5
		c0.1-5.1-0.7-10.2-2.4-15C1344.2,1253.4,1341.7,1249.4,1338.5,1245.9z M1299.6,1252.2c4.2-2.1,8.8-3.2,13.5-3
		c6.5,0,12.6,3,16.4,8.3c1.9,2.6,3,5.6,3.2,8.7v1h-43.5c0.4-2.1,1.1-4.2,2-6.1C1293.1,1257.3,1296,1254.2,1299.6,1252.2
		L1299.6,1252.2z"/>
	<path d="M1423.7,1245.9c-3.2-3.4-7.1-6-11.3-7.9c-4.4-1.9-9.2-2.9-14.1-2.9c-5.4-0.1-10.9,1-15.9,3c-4.8,1.9-9,4.9-12.6,8.6
		c-3.6,3.8-6.3,8.2-8.2,13.1c-2,5.3-3.1,11-3,16.7c-0.1,7.2,1.7,14.2,5.2,20.4c3.5,5.9,8.5,10.7,14.5,14c6.5,3.5,13.8,5.3,21.2,5.1
		c3.8,0,7.5-0.5,11.2-1.6c3.7-1,7.4-2.4,10.8-4.2c3.2-1.6,6.1-3.7,8.7-6.2l-7.7-10.8c-3.2,2.9-6.8,5.3-10.7,7
		c-3.4,1.3-7.1,2-10.7,1.9c-5,0.1-9.9-1-14.3-3.3c-4-2.1-7.4-5.3-9.6-9.2c-1.8-3.2-2.9-6.7-3.2-10.3h59.4l0.2-6.5
		c0.2-5.1-0.7-10.2-2.4-15C1429.5,1253.4,1427,1249.4,1423.7,1245.9z M1384.9,1252.2c4.2-2.1,8.8-3.2,13.5-3c6.5,0,12.6,3,16.4,8.3
		c1.9,2.6,3,5.6,3.2,8.7v1h-43.5c0.4-2.1,1.1-4.2,2-6.1C1378.3,1257.3,1381.2,1254.2,1384.9,1252.2L1384.9,1252.2z"/>
	<path d="M1487.7,1235.3c-3.7,0-7.3,0.9-10.6,2.7c-3.4,1.8-6.5,4.3-9,7.2c-1.6,1.9-3,4-4.1,6.3v-14.6h-15.4v77.7h15.4v-42.9
		c0-2.7,0.5-5.4,1.6-7.9c1-2.4,2.5-4.5,4.4-6.4c1.8-1.8,4-3.3,6.4-4.3c2.4-1,5-1.6,7.6-1.6c1.4,0,2.8,0.2,4.2,0.5
		c1.3,0.3,2.7,0.7,3.9,1.3l4-16.6c-1.2-0.5-2.4-0.8-3.6-1C1491,1235.4,1489.4,1235.3,1487.7,1235.3z"/>
	<path d="M1516.7,1200.5c-2.7-0.2-5.4,0.8-7.5,2.7c-3.6,4-3.7,10-0.1,14.1c1.8,1.7,4.3,2.5,7.6,2.5c2.8,0.1,5.4-0.8,7.5-2.7
		c3.6-4,3.6-10,0.1-14C1522.5,1201.3,1520,1200.5,1516.7,1200.5z"/>
	<rect x="1509.3" y="1236.9" width="15.2" height="77.7"/>
	<path d="M1602,1238.7c-3.9-2.3-8.9-3.5-14.8-3.5c-4.2,0-8.4,0.9-12.2,2.7c-3.8,1.7-7.3,4.1-10.2,7.1c-1.2,1.2-2.2,2.5-3.1,3.8v-12
		h-15.2v77.7h15.2v-47.1c0-2.5,0.5-4.9,1.6-7.2c1-2.2,2.5-4.2,4.3-5.8c1.9-1.7,4.1-3,6.4-3.9c2.6-1,5.4-1.4,8.1-1.4
		c3.2-0.3,6.3,0.3,9.2,1.7c2.5,1.4,4.5,3.7,5.5,6.4c1.3,3.5,1.9,7.3,1.8,11v46.3h15.2v-47.4c0-7.2-1-13.2-3-17.9
		C1609.1,1244.9,1606,1241.2,1602,1238.7z"/>
	<path d="M1692.5,1236.9v10.6c-1.1-1.3-2.2-2.5-3.6-3.6c-2-1.6-4.1-3.1-6.4-4.4c-2.4-1.4-5-2.4-7.7-3.1c-2.8-0.7-5.7-1.1-8.6-1.1
		c-6.8-0.1-13.6,1.7-19.5,5.2c-5.7,3.5-10.5,8.4-13.6,14.4c-3.4,6.4-5.1,13.5-5,20.8c-0.1,7.2,1.6,14.4,5,20.8
		c3.2,5.9,7.9,10.9,13.7,14.4c6,3.6,12.8,5.4,19.8,5.2c4.3,0,8.5-0.9,12.4-2.7c3.8-1.6,7.2-4,10.1-6.9c1.2-1.3,2.3-2.7,3.2-4.2v9.3
		c0.1,4.5-0.8,8.9-2.8,12.9c-1.9,3.4-4.8,6.2-8.3,7.8c-4.3,1.9-8.9,2.8-13.6,2.7c-2.9,0-5.9-0.4-8.7-1c-2.9-0.6-5.7-1.5-8.4-2.7
		c-2.5-1-4.8-2.3-7-3.9l-5.6,11.8c3.9,3.1,8.4,5.4,13.2,6.7c5.3,1.7,10.9,2.6,16.5,2.6c5.7,0.1,11.3-0.8,16.7-2.6
		c4.7-1.6,9-4.2,12.6-7.6c3.5-3.4,6.2-7.5,7.9-12.1c1.9-5.3,2.8-10.9,2.7-16.5v-72.9L1692.5,1236.9z M1681.3,1298.6
		c-3.9,2.3-8.3,3.5-12.9,3.4c-9,0.2-17.3-4.8-21.4-12.8c-4.3-8.5-4.3-18.6,0-27.1c2-3.9,5-7.2,8.7-9.5c3.8-2.3,8.2-3.6,12.7-3.5
		c9.1-0.3,17.5,4.7,21.6,12.8c4.2,8.6,4.2,18.7,0.1,27.3C1688.1,1293.2,1685,1296.4,1681.3,1298.6z"/>
</g>
<linearGradient id="SVGID_1_" gradientUnits="userSpaceOnUse" x1="502.3534" y1="539.7817" x2="1551.6708" y2="1589.099" gradientTransform="matrix(1 0 0 -1 0 1997.8898)">
	<stop  offset="0" style="stop-color:#591CE6"/>
	<stop  offset="8.000000e-02" style="stop-color:#5D1EE4"/>
	<stop  offset="0.16" style="stop-color:#6A22DD"/>
	<stop  offset="0.24" style="stop-color:#7E2AD1"/>
	<stop  offset="0.32" style="stop-color:#9B35C1"/>
	<stop  offset="0.4" style="stop-color:#C144AC"/>
	<stop  offset="0.48" style="stop-color:#EE5593"/>
	<stop  offset="0.5" style="stop-color:#F9598D"/>
	<stop  offset="0.57" style="stop-color:#FA6682"/>
	<stop  offset="0.72" style="stop-color:#FA7A70"/>
	<stop  offset="0.86" style="stop-color:#FB8765"/>
	<stop  offset="1" style="stop-color:#FB8B61"/>
</linearGradient>
<path class="st0" d="M337.9,822.6l-51.5,61.5c-5.9-6.6-12.4-12.6-19.5-17.8c-7.6-5.6-16-9.9-24.9-13c-9.1-3.2-18.7-4.8-28.4-4.7
	c-15,0-28.2,3.5-39.7,10.4c-11.4,6.9-20.6,16.8-26.6,28.7c-6.3,12.2-9.5,26.2-9.5,42c0,15,3.3,28.6,9.8,40.8
	c6.2,11.9,15.5,21.9,26.9,29c11.5,7.1,24.5,10.7,39.1,10.7c9.6,0.1,19.2-1.2,28.4-3.8c8.6-2.5,16.7-6.4,24-11.5
	c7.6-5.4,14.5-11.8,20.4-18.9l50.9,62.2l0,0c-13.4,17-32.1,30.4-56,40.3c-24.3,9.9-50.3,14.9-76.6,14.7l0,0
	c-30.4,0-57.6-7.1-81.7-21.3c-23.9-14-43.6-34.2-57.1-58.3c-14-24.7-21-52.6-21-83.8c0-31.2,7-59.1,21-83.8
	c13.5-24.1,33.2-44.2,57.1-58.2c24.1-14.2,51.3-21.3,81.7-21.3c28,0,53.8,4.9,77.2,14.8S324.1,804.8,337.9,822.6L337.9,822.6z
	 M678.9,845.6c14.6,24.4,21.9,52.4,21.9,84c0,31.6-7.3,59.6-21.9,84.1c-14.5,24.4-35.2,44.4-60.1,58c-25.5,14.3-54.6,21.4-87.3,21.4
	c-32.8,0-61.9-7.1-87.3-21.3c-24.9-13.7-45.7-33.7-60.4-58c-14.8-24.5-22.2-52.5-22.2-84.1c0-31.6,7.4-59.6,22.2-84
	c14.7-24.3,35.5-44.3,60.4-58c25.5-14.2,54.6-21.3,87.3-21.3s61.9,7.1,87.3,21.2C643.6,801.2,664.4,821.3,678.9,845.6L678.9,845.6z
	 M604.2,929.7c0.4-15.8-2.6-29.9-8.9-42.3c-5.9-11.9-14.8-22.1-26-29.3c-11.1-7.1-23.7-10.7-37.9-10.7c-14.2,0-26.9,3.6-38.2,10.7
	c-11.3,7.2-20.4,17.3-26.3,29.4c-6.3,12.4-9.3,26.5-8.9,42.3c-0.4,15.8,2.6,29.8,8.9,42c6,11.9,15.1,21.9,26.3,29
	c11.2,7.1,23.9,10.7,38.1,10.7l0,0c14.2,0,26.8-3.5,37.9-10.7c11.1-7.2,20.1-17.2,26-29C601.7,959.5,604.6,945.5,604.2,929.7
	L604.2,929.7z M1042.3,845.3c12.2,24.7,18.4,52.8,18.4,84.3c0,32-6,60.3-18,85c-12,24.7-28.5,44-49.4,58c-21,14-44.6,21-71.1,21
	c-26.9,0.1-53.3-7.5-76.1-21.9c-8.2-5.2-15.6-11.4-22.1-18.7l-2.5,33.5h-88.2V649.1h95.3v156c5.8-6.3,12.4-11.9,19.5-16.6
	c10.4-7,21.8-12.5,33.8-16.3c12.2-4,25-6,37.9-5.9c27.2,0,51.4,7,72.5,21S1030.1,820.6,1042.3,845.3L1042.3,845.3z M967.7,929.7
	c0-16.6-2.9-31.2-8.6-43.8s-13.9-22.3-24.5-29c-10.7-6.7-23.1-10.1-37.3-10.1c-14.6,0-27.2,3.4-37.9,10.1
	c-10.7,6.7-18.9,16.4-24.9,29c-5.9,12.7-8.9,27.3-8.9,43.8c0,17,3,31.7,8.9,44.1c5.4,11.9,14.1,22,24.9,29.3
	c10.7,7.1,23.3,10.7,37.9,10.7c14.2,0,26.6-3.5,37.3-10.7c10.8-7.3,19.3-17.4,24.5-29.3C964.9,961.4,967.8,946.6,967.7,929.7
	L967.7,929.7z M1335.3,772.8h94.1v314.3h-95.9v-37.5c-6,6.9-12.7,13.2-20.1,18.5c-10.5,7.6-22.1,13.6-34.3,17.8
	c-13,4.4-26.6,6.6-40.3,6.5c-26.4,0-50-7-70.7-21s-37.2-33.3-49.4-58c-12.2-24.7-18.3-52.6-18.3-83.8c0-32,6.1-60.2,18.3-84.6
	s29-43.7,50.3-57.7c21.3-14,45.6-21,72.8-21c14-0.2,27.9,2,41.2,6.5c11.9,4.1,23,10.2,32.8,18.1c7.3,5.9,13.8,12.6,19.5,20
	L1335.3,772.8z M1327.6,973.8c5.9-12.4,8.9-27.1,8.9-44.1s-3-31.7-8.9-44.1c-5.9-12.4-14.2-22.1-24.9-29
	c-10.7-6.9-23.3-10.4-37.9-10.4c-14.2,0-26.5,3.5-37,10.4c-10.5,6.9-18.6,16.6-24.6,29c-5.9,12.4-8.9,27.1-8.9,44.1
	c0,17,3,31.7,8.9,44.1c5.9,12.4,14.1,22,24.6,28.7s22.8,10.1,37,10.1c14.6,0,27.2-3.4,37.9-10.1S1321.7,986.2,1327.6,973.8
	L1327.6,973.8z M1483.9,1087.2h94.7v-438h-94.7V1087.2z M1792.3,829.4h64.8V742h-64.8v-82.4l0,0v-10.2h-94.7V742h-65.2v87.4h65.2
	v258h94.7v-9.6l0,0V829.4z M1939.1,1001.6c-9.1-9.3-21.7-13.9-37.9-13.9c-15,0-27.2,4.9-36.7,14.8c-9.5,9.9-14.2,22.7-14.2,38.5
	c0,17,4.4,30,13.3,39.1c8.9,9.1,21.4,13.6,37.6,13.6c15.4,0,27.8-4.9,37.3-14.8s14.2-22.5,14.2-37.9
	C1952.7,1024,1948.2,1010.9,1939.1,1001.6L1939.1,1001.6z"/>
</svg>
