<?xml version="1.0" encoding="utf-8"?>
<!-- Generator: Adobe Illustrator 25.0.1, SVG Export Plug-In . SVG Version: 6.00 Build 0)  -->
<svg version="1.1" id="Calque_1" xmlns="http://www.w3.org/2000/svg" xmlns:xlink="http://www.w3.org/1999/xlink" x="0px" y="0px"
	 viewBox="0 0 2000 2000" style="enable-background:new 0 0 2000 2000;" xml:space="preserve">
<g>
	<path d="M281.9,781.7c-23.5-9.9-49.2-14.8-77.2-14.8c-30.4,0-57.6,7.1-81.7,21.3c-23.9,14-43.6,34.1-57.1,58.3
		c-14,24.7-21,52.6-21,83.8s7,59.1,21,83.8c13.5,24.2,33.2,44.3,57.1,58.3c24.1,14.2,51.3,21.3,81.7,21.3l0,0
		c26.3,0.2,52.3-4.9,76.6-14.8c23.9-9.9,42.5-23.3,56-40.3l0,0l0,0c0,0,0,0,0,0l0,0l-50.9-62.1c-6,7.2-12.8,13.5-20.4,18.9
		c-7.3,5.1-15.4,9-24,11.5c-9.2,2.6-18.8,3.9-28.4,3.8c-14.6,0-27.6-3.5-39.1-10.7c-11.4-7.1-20.7-17.1-26.9-29
		c-6.5-12.2-9.8-25.8-9.8-40.8c0-15.8,3.2-29.8,9.5-42c6-11.9,15.2-21.8,26.6-28.7c11.4-6.9,24.7-10.4,39.7-10.4
		c9.7,0,19.3,1.6,28.4,4.7c8.9,3.1,17.3,7.4,24.9,13c7.1,5.2,13.7,11.1,19.5,17.8l51.5-61.5c0,0,0,0,0-0.1
		C324.1,805.4,305.4,791.6,281.9,781.7z"/>
	<path d="M618.8,788.2C593.3,774,564.2,767,531.5,767s-61.8,7.1-87.3,21.3c-24.9,13.7-45.7,33.7-60.4,58
		c-14.8,24.4-22.2,52.4-22.2,84c0,31.6,7.4,59.6,22.2,84.1c14.6,24.3,35.5,44.3,60.4,58c25.4,14.2,54.5,21.3,87.3,21.3
		c32.8,0,61.9-7.1,87.3-21.4c24.9-13.6,45.6-33.6,60.1-58c14.6-24.5,21.9-52.5,21.9-84.1c0-31.6-7.3-59.6-21.9-84
		C664.3,821.8,644.3,802.4,618.8,788.2z M595.4,972.3c-5.9,11.8-14.9,21.8-26,29c-11.1,7.1-23.7,10.7-37.9,10.7v0
		c-14.2,0-26.9-3.6-38.1-10.7c-11.2-7.1-20.3-17.1-26.3-29c-6.3-12.2-9.3-26.2-8.9-42c-0.4-15.8,2.6-29.9,8.9-42.3
		c5.9-12,15-22.2,26.3-29.3c11.2-7.1,24-10.7,38.2-10.7s26.8,3.6,37.9,10.7c11.2,7.2,20.1,17.4,26,29.3c6.3,12.4,9.3,26.6,8.9,42.3
		C604.6,946.1,601.7,960.1,595.4,972.3z"/>
	<path d="M992.3,787.9c-21.1-14-45.3-21-72.5-21c-12.9,0-25.6,2-37.9,5.9c-12,3.8-23.3,9.3-33.8,16.3c-7.2,4.7-13.7,10.3-19.5,16.6
		v-156h-95.3v437.5h88.2l2.5-33.5c6.5,7.2,13.9,13.5,22.1,18.7c22.8,14.4,49.1,22,76.1,21.9c26.4,0,50.1-7,71.1-21
		c21-14,37.4-33.3,49.4-58c12-24.7,18-53,18-85c0-31.6-6.1-59.7-18.4-84.3C1030.1,821.2,1013.4,801.9,992.3,787.9z M959.2,974.4
		c-5.3,11.9-13.8,22-24.5,29.3c-10.7,7.1-23.1,10.7-37.3,10.7c-14.6,0-27.2-3.5-37.9-10.7c-10.7-7.1-19-16.9-24.9-29.3
		c-5.9-12.4-8.9-27.1-8.9-44.1c0-16.5,3-31.1,8.9-43.8c5.9-12.6,14.2-22.3,24.9-29c10.7-6.7,23.3-10.1,37.9-10.1
		c14.2,0,26.6,3.4,37.3,10.1c10.6,6.7,18.8,16.4,24.5,29s8.6,27.2,8.6,43.8C967.8,947.2,964.9,961.9,959.2,974.4z"/>
	<path d="M1335.3,811.5c-5.7-7.4-12.2-14.1-19.5-20c-9.8-7.9-20.9-14-32.8-18.1c-13.3-4.5-27.2-6.7-41.2-6.5c-27.2,0-51.5,7-72.8,21
		c-21.3,14-38.1,33.3-50.3,57.7c-12.2,24.5-18.3,52.7-18.3,84.6c0,31.2,6.1,59.1,18.3,83.8c12.2,24.7,28.7,44,49.4,58
		c20.7,14,44.3,21,70.7,21c13.7,0.1,27.3-2.1,40.3-6.5c12.3-4.2,23.8-10.1,34.3-17.8c7.4-5.4,14.2-11.6,20.1-18.5v37.5h95.9V773.4
		h-94.1V811.5z M1302.8,1003.1c-10.7,6.7-23.3,10.1-37.9,10.1c-14.2,0-26.5-3.4-37-10.1c-10.5-6.7-18.6-16.3-24.6-28.7
		c-5.9-12.4-8.9-27.1-8.9-44.1s3-31.7,8.9-44.1c5.9-12.4,14.1-22.1,24.6-29s22.8-10.4,37-10.4c14.6,0,27.2,3.5,37.9,10.4
		s18.9,16.6,24.9,29c5.9,12.4,8.9,27.1,8.9,44.1s-3,31.7-8.9,44.1C1321.8,986.8,1313.5,996.4,1302.8,1003.1z"/>
	<polygon points="1483.9,1087.7 1578.6,1087.8 1578.6,649.7 1483.9,649.7 	"/>
	<polygon points="1792.3,830 1857.1,830 1857.1,742.6 1792.3,742.6 1792.3,660.2 1792.3,660.2 1792.3,650 1697.6,650 1697.6,742.6 
		1632.4,742.6 1632.4,830 1697.6,830 1697.6,1088 1792.3,1088 1792.3,1078.4 1792.3,1078.4 	"/>
	<path d="M1939.1,1002.2c-9.1-9.3-21.7-13.9-37.9-13.9c-15,0-27.2,4.9-36.7,14.8s-14.2,22.7-14.2,38.5c0,17,4.5,30,13.3,39.1
		c8.9,9.1,21.4,13.6,37.6,13.6c15.4,0,27.8-4.9,37.3-14.8c9.5-9.9,14.2-22.5,14.2-37.9C1952.7,1024.6,1948.2,1011.5,1939.1,1002.2z"
		/>
</g>
</svg>
