<svg id="Calque_1" data-name="Calque 1" xmlns="http://www.w3.org/2000/svg" viewBox="0 0 2000 2000"><path d="M82.65,1236.44a33.49,33.49,0,0,1,24.49-10.36,29.36,29.36,0,0,1,9.11,1.48,36.79,36.79,0,0,1,8.87,4.37,56.17,56.17,0,0,1,8.66,7.18l10.66-11.1a38.86,38.86,0,0,0-9.55-9.25,49.72,49.72,0,0,0-47.58-4.66,49.93,49.93,0,0,0-16.13,11.25,53.49,53.49,0,0,0-14.8,37.44A61,61,0,0,0,60,1284.24a50.53,50.53,0,0,0,10.28,17,45.48,45.48,0,0,0,15.69,11,50,50,0,0,0,19.83,3.85,58,58,0,0,0,14.43-1.85,53.7,53.7,0,0,0,13-5.11,32.91,32.91,0,0,0,9.25-7.25l-8-13a39.67,39.67,0,0,1-7.55,5.92,35.76,35.76,0,0,1-18.49,5.18,39.45,39.45,0,0,1-14.58-2.59,31.72,31.72,0,0,1-11.32-7.47,33.69,33.69,0,0,1-7.33-11.77,43.25,43.25,0,0,1-2.59-15.32,39.61,39.61,0,0,1,2.67-14.72A35.63,35.63,0,0,1,82.65,1236.44Z"/><path d="M198,1235.26a22.71,22.71,0,0,0-10.58,2.66,30.38,30.38,0,0,0-9,7.25,27.33,27.33,0,0,0-4.07,6.29v-14.57H158.94v77.69h15.39v-42.92a19.06,19.06,0,0,1,1.62-7.91,21.45,21.45,0,0,1,4.37-6.37,20.22,20.22,0,0,1,6.36-4.29,19.2,19.2,0,0,1,7.62-1.55,18.18,18.18,0,0,1,4.22.51,26.72,26.72,0,0,1,3.92,1.26l4-16.57a17.6,17.6,0,0,0-3.63-1A25.89,25.89,0,0,0,198,1235.26Z"/><path d="M274.15,1245.91a35.33,35.33,0,0,0-11.32-7.91,34.18,34.18,0,0,0-14.06-2.89,41.27,41.27,0,0,0-15.91,3,36.34,36.34,0,0,0-12.58,8.59,40.1,40.1,0,0,0-8.21,13.09,45.32,45.32,0,0,0-3,16.73,39.39,39.39,0,0,0,5.25,20.42,37.61,37.61,0,0,0,14.51,14,44.63,44.63,0,0,0,32.41,3.56,54.39,54.39,0,0,0,10.8-4.22,35,35,0,0,0,8.66-6.22l-7.7-10.8a37.56,37.56,0,0,1-10.73,7,29.11,29.11,0,0,1-10.73,1.93,30.54,30.54,0,0,1-14.35-3.26,23.12,23.12,0,0,1-9.62-9.25,26.44,26.44,0,0,1-3.2-10.28H283.8l.15-6.51a40.15,40.15,0,0,0-2.44-15A34.82,34.82,0,0,0,274.15,1245.91Zm-38.85,6.29a27.5,27.5,0,0,1,13.47-3,20.23,20.23,0,0,1,16.43,8.29,17.07,17.07,0,0,1,3.25,8.73v1H225a27.06,27.06,0,0,1,2-6.14,19.66,19.66,0,0,1,8.3-8.88Z"/><path d="M356.06,1248.75A27.73,27.73,0,0,0,341.41,1237a33.25,33.25,0,0,0-11.1-1.77,33.7,33.7,0,0,0-18.42,5.18,36.7,36.7,0,0,0-13,14.28,43.78,43.78,0,0,0-4.81,20.79,44.45,44.45,0,0,0,4.73,20.72,38.3,38.3,0,0,0,12.65,14.5A30.73,30.73,0,0,0,329,1316a32.13,32.13,0,0,0,10.73-1.78,37.87,37.87,0,0,0,9.32-4.73,29.11,29.11,0,0,0,7-6.74.36.36,0,0,0,.07-.1v11.87h15.39v-77.69H356.06Zm-2.44,40.45a23.42,23.42,0,0,1-8.36,9.4A22.31,22.31,0,0,1,333,1302a21.63,21.63,0,0,1-12.06-3.4,23.59,23.59,0,0,1-8.29-9.4,29.88,29.88,0,0,1-3-13.69,29,29,0,0,1,3-13.47,23.74,23.74,0,0,1,8.29-9.32,21.63,21.63,0,0,1,12.06-3.4,22.38,22.38,0,0,1,12.28,3.4,23.7,23.7,0,0,1,8.36,9.32,29.23,29.23,0,0,1,3,13.47A30,30,0,0,1,353.62,1289.2Z"/><polygon points="416.15 1217.06 400.9 1217.06 400.9 1236.89 384.77 1236.89 384.77 1251.68 400.9 1251.68 400.9 1314.58 416.15 1314.58 416.15 1251.68 434.2 1251.68 434.2 1236.89 416.15 1236.89 416.15 1217.06"/><path d="M456.55,1200.48a10.3,10.3,0,0,0-7.48,2.66,10.48,10.48,0,0,0-.07,14.06c1.77,1.68,4.28,2.52,7.55,2.52a10.23,10.23,0,0,0,7.47-2.67,10.47,10.47,0,0,0,.07-14C462.32,1201.32,459.8,1200.48,456.55,1200.48Z"/><rect x="449.15" y="1236.89" width="15.24" height="77.69"/><polygon points="517.89 1292.35 495.31 1236.89 478.89 1236.89 511.74 1314.58 522.69 1314.58 557.17 1236.89 541.49 1236.89 517.89 1292.35"/><path d="M627.69,1245.91a35.33,35.33,0,0,0-11.32-7.91,34.18,34.18,0,0,0-14.06-2.89,41.27,41.27,0,0,0-15.91,3,36.34,36.34,0,0,0-12.58,8.59,40.1,40.1,0,0,0-8.21,13.09,45.32,45.32,0,0,0-3,16.73A39.35,39.35,0,0,0,567.9,1297a37.61,37.61,0,0,0,14.51,14,44.63,44.63,0,0,0,32.41,3.56,54.39,54.39,0,0,0,10.8-4.22,35,35,0,0,0,8.66-6.22l-7.7-10.8a37.56,37.56,0,0,1-10.73,7,29.11,29.11,0,0,1-10.73,1.93,30.54,30.54,0,0,1-14.35-3.26,23.12,23.12,0,0,1-9.62-9.25,26.44,26.44,0,0,1-3.2-10.28h59.43l.15-6.51a40.15,40.15,0,0,0-2.44-15A34.83,34.83,0,0,0,627.69,1245.91Zm-38.85,6.29a27.5,27.5,0,0,1,13.47-3,20.23,20.23,0,0,1,16.43,8.29,17.07,17.07,0,0,1,3.25,8.73v1H578.53a27.06,27.06,0,0,1,2-6.14,19.58,19.58,0,0,1,8.31-8.88Z"/><polygon points="692.58 1225.79 709.31 1225.79 709.31 1299.78 692.58 1299.78 692.58 1314.58 742.01 1314.58 742.01 1299.78 725.29 1299.78 725.29 1225.79 742.01 1225.79 742.01 1210.99 692.58 1210.99 692.58 1225.79"/><polygon points="756.37 1226.38 785.37 1226.38 785.37 1314.58 801.36 1314.58 801.36 1226.38 831.25 1226.38 831.25 1210.99 756.37 1210.99 756.37 1226.38"/><path d="M945.87,1245.91a35.33,35.33,0,0,0-11.32-7.91,34.18,34.18,0,0,0-14.06-2.89,41.27,41.27,0,0,0-15.91,3A36.25,36.25,0,0,0,892,1246.7a40.1,40.1,0,0,0-8.21,13.09,45.32,45.32,0,0,0-3,16.73,39.39,39.39,0,0,0,5.25,20.42,37.58,37.58,0,0,0,14.5,14,43.07,43.07,0,0,0,21.24,5.11A42.58,42.58,0,0,0,933,1314.5a54.47,54.47,0,0,0,10.81-4.22,35.16,35.16,0,0,0,8.65-6.22l-7.69-10.8a37.78,37.78,0,0,1-10.73,7,29.32,29.32,0,0,1-10.73,1.93,30.58,30.58,0,0,1-14.36-3.26,23.18,23.18,0,0,1-9.62-9.25,26.26,26.26,0,0,1-3.19-10.28h59.43l.15-6.51a40.15,40.15,0,0,0-2.44-15A35,35,0,0,0,945.87,1245.91ZM907,1252.2a27.5,27.5,0,0,1,13.47-3,20.17,20.17,0,0,1,16.42,8.29,17.14,17.14,0,0,1,3.26,8.73v1H896.71a27.06,27.06,0,0,1,2-6.14A19.63,19.63,0,0,1,907,1252.2Z"/><path d="M1026.3,1238.74q-5.92-3.48-14.8-3.48a28.56,28.56,0,0,0-12.13,2.74,34.31,34.31,0,0,0-10.22,7.1,25.88,25.88,0,0,0-3.1,3.82v-12H970.8v77.69h15.25v-47.06a16.78,16.78,0,0,1,1.55-7.18,18.45,18.45,0,0,1,4.29-5.84,19.93,19.93,0,0,1,6.44-3.93,22.83,22.83,0,0,1,8.14-1.4,17,17,0,0,1,9.17,1.7,12.08,12.08,0,0,1,5.48,6.36,29.64,29.64,0,0,1,1.78,11v46.32h15.24v-47.36q0-10.8-3-17.9A21.28,21.28,0,0,0,1026.3,1238.74Z"/><path d="M1116.87,1247.46a25.31,25.31,0,0,0-3.55-3.62,40.77,40.77,0,0,0-6.37-4.36,33.23,33.23,0,0,0-16.28-4.22,36.72,36.72,0,0,0-19.46,5.25,37.27,37.27,0,0,0-13.61,14.36,45.76,45.76,0,0,0,.07,41.58,37.91,37.91,0,0,0,13.69,14.36,37.39,37.39,0,0,0,19.76,5.25,30.78,30.78,0,0,0,12.43-2.66,31.5,31.5,0,0,0,10.14-6.89,20.7,20.7,0,0,0,3.18-4.21v9.32a26.85,26.85,0,0,1-2.81,12.88,18.29,18.29,0,0,1-8.29,7.84,31.13,31.13,0,0,1-13.62,2.66,41.37,41.37,0,0,1-8.73-1,46.9,46.9,0,0,1-8.43-2.66,33.64,33.64,0,0,1-7-3.92l-5.62,11.83a39.16,39.16,0,0,0,13.24,6.74,55,55,0,0,0,16.5,2.59,50.58,50.58,0,0,0,16.73-2.59,34.36,34.36,0,0,0,12.58-7.55,32.76,32.76,0,0,0,7.91-12.13,46,46,0,0,0,2.74-16.51v-73h-15.24Zm-11.25,51.14a24.37,24.37,0,0,1-12.88,3.4,23.47,23.47,0,0,1-21.38-12.8,30.42,30.42,0,0,1,0-27.08,24.47,24.47,0,0,1,8.73-9.47,24.59,24.59,0,0,1,34.19,9.32,31.22,31.22,0,0,1,.07,27.3A23.41,23.41,0,0,1,1105.62,1298.6Z"/><rect x="1154.46" y="1236.89" width="15.24" height="77.69"/><path d="M1161.85,1200.48a10.26,10.26,0,0,0-7.47,2.66,10.48,10.48,0,0,0-.07,14.06c1.77,1.68,4.29,2.52,7.54,2.52a10.25,10.25,0,0,0,7.48-2.67,10.47,10.47,0,0,0,.07-14C1167.62,1201.32,1165.11,1200.48,1161.85,1200.48Z"/><path d="M1247.1,1238.74q-5.92-3.48-14.8-3.48a28.64,28.64,0,0,0-12.14,2.74,34.14,34.14,0,0,0-10.21,7.1,25.32,25.32,0,0,0-3.11,3.82v-12H1191.6v77.69h15.24v-47.06a16.65,16.65,0,0,1,1.56-7.18,18.15,18.15,0,0,1,4.29-5.84,19.66,19.66,0,0,1,6.44-3.93,22.83,22.83,0,0,1,8.14-1.4,17.18,17.18,0,0,1,9.17,1.7,12.16,12.16,0,0,1,5.48,6.36,29.63,29.63,0,0,1,1.77,11v46.32h15.25v-47.36q0-10.8-3-17.9A21.28,21.28,0,0,0,1247.1,1238.74Z"/><path d="M1338.48,1245.91a35.33,35.33,0,0,0-11.32-7.91,34.18,34.18,0,0,0-14.06-2.89,41.27,41.27,0,0,0-15.91,3,36.25,36.25,0,0,0-12.58,8.59,40.1,40.1,0,0,0-8.21,13.09,45.32,45.32,0,0,0-3,16.73,39.39,39.39,0,0,0,5.25,20.42,37.58,37.58,0,0,0,14.5,14,43.07,43.07,0,0,0,21.24,5.11,42.58,42.58,0,0,0,11.17-1.55,54.47,54.47,0,0,0,10.81-4.22,35.16,35.16,0,0,0,8.65-6.22l-7.69-10.8a37.78,37.78,0,0,1-10.73,7,29.32,29.32,0,0,1-10.73,1.93,30.58,30.58,0,0,1-14.36-3.26,23.09,23.09,0,0,1-9.61-9.25,26.44,26.44,0,0,1-3.2-10.28h59.43l.15-6.51a40.15,40.15,0,0,0-2.44-15A35,35,0,0,0,1338.48,1245.91Zm-38.85,6.29a27.5,27.5,0,0,1,13.47-3,20.2,20.2,0,0,1,16.43,8.29,17.19,17.19,0,0,1,3.25,8.73v1h-43.46a27.06,27.06,0,0,1,2-6.14,19.68,19.68,0,0,1,8.31-8.88Z"/><path d="M1423.72,1245.91a35.33,35.33,0,0,0-11.32-7.91,34.18,34.18,0,0,0-14.06-2.89,41.27,41.27,0,0,0-15.91,3,36.34,36.34,0,0,0-12.58,8.59,40.1,40.1,0,0,0-8.21,13.09,45.32,45.32,0,0,0-3,16.73,39.39,39.39,0,0,0,5.25,20.42,37.61,37.61,0,0,0,14.51,14,44.63,44.63,0,0,0,32.41,3.56,55,55,0,0,0,10.8-4.22,35,35,0,0,0,8.66-6.22l-7.7-10.8a37.56,37.56,0,0,1-10.73,7,29.32,29.32,0,0,1-10.73,1.93,30.54,30.54,0,0,1-14.35-3.26,23.12,23.12,0,0,1-9.62-9.25,26.44,26.44,0,0,1-3.2-10.28h59.43l.15-6.51a40.15,40.15,0,0,0-2.44-15A34.82,34.82,0,0,0,1423.72,1245.91Zm-38.85,6.29a27.5,27.5,0,0,1,13.47-3,20.2,20.2,0,0,1,16.43,8.29,17.07,17.07,0,0,1,3.25,8.73v1h-43.46a27.06,27.06,0,0,1,2-6.14,19.58,19.58,0,0,1,8.31-8.88Z"/><path d="M1487.73,1235.26a22.63,22.63,0,0,0-10.59,2.66,30.38,30.38,0,0,0-9,7.25,27.33,27.33,0,0,0-4.07,6.29v-14.57h-15.39v77.69h15.39v-42.92a19.07,19.07,0,0,1,1.63-7.91,21.24,21.24,0,0,1,4.36-6.37,20.33,20.33,0,0,1,6.36-4.29,19.07,19.07,0,0,1,7.63-1.55,18.1,18.1,0,0,1,4.21.51,27.23,27.23,0,0,1,3.93,1.26l4-16.57a17.51,17.51,0,0,0-3.62-1A26.21,26.21,0,0,0,1487.73,1235.26Z"/><path d="M1516.73,1200.48a10.26,10.26,0,0,0-7.47,2.66,10.5,10.5,0,0,0-.08,14.06c1.78,1.68,4.29,2.52,7.55,2.52a10.25,10.25,0,0,0,7.48-2.67,10.49,10.49,0,0,0,.07-14C1522.5,1201.32,1520,1200.48,1516.73,1200.48Z"/><rect x="1509.33" y="1236.89" width="15.24" height="77.69"/><path d="M1602,1238.74q-5.91-3.48-14.79-3.48A28.51,28.51,0,0,0,1575,1238a34.14,34.14,0,0,0-10.21,7.1,24.92,24.92,0,0,0-3.11,3.83v-12h-15.24v77.69h15.24v-47.06a16.65,16.65,0,0,1,1.56-7.18,18.15,18.15,0,0,1,4.29-5.84,19.78,19.78,0,0,1,6.43-3.93,22.83,22.83,0,0,1,8.14-1.4,17.12,17.12,0,0,1,9.18,1.7,12.15,12.15,0,0,1,5.47,6.36,29.44,29.44,0,0,1,1.78,11v46.32h15.24v-47.36q0-10.8-3-17.9A21.21,21.21,0,0,0,1602,1238.74Z"/><path d="M1692.54,1236.89v10.57a25.31,25.31,0,0,0-3.55-3.62,40.77,40.77,0,0,0-6.37-4.36,32.3,32.3,0,0,0-7.69-3.11,33.12,33.12,0,0,0-8.58-1.11,36.72,36.72,0,0,0-19.46,5.25,37.44,37.44,0,0,0-13.62,14.36,42.77,42.77,0,0,0-5,20.79,42.22,42.22,0,0,0,5,20.79,37.76,37.76,0,0,0,13.69,14.36,37.38,37.38,0,0,0,19.75,5.25,30.78,30.78,0,0,0,12.43-2.66,31.39,31.39,0,0,0,10.14-6.89,20.08,20.08,0,0,0,3.18-4.21v9.32a26.85,26.85,0,0,1-2.81,12.88,18.29,18.29,0,0,1-8.29,7.84,31.08,31.08,0,0,1-13.61,2.66,41.37,41.37,0,0,1-8.73-1,47,47,0,0,1-8.44-2.66,33.64,33.64,0,0,1-7-3.92l-5.63,11.83a39.11,39.11,0,0,0,13.25,6.74,54.7,54.7,0,0,0,16.5,2.59,50.52,50.52,0,0,0,16.72-2.59,34.36,34.36,0,0,0,12.58-7.55,32.78,32.78,0,0,0,7.92-12.13,46.22,46.22,0,0,0,2.74-16.51v-73Zm-11.25,61.71a24.36,24.36,0,0,1-12.87,3.4,23.47,23.47,0,0,1-21.38-12.8,30.35,30.35,0,0,1,0-27.08,24.4,24.4,0,0,1,8.73-9.47A24.62,24.62,0,0,1,1690,1262a31.25,31.25,0,0,1,.08,27.3A23.48,23.48,0,0,1,1681.29,1298.6Z"/><path d="M337.86,822.57l-51.47,61.52a122.27,122.27,0,0,0-19.53-17.75,93.25,93.25,0,0,0-24.87-13,85.86,85.86,0,0,0-28.41-4.74q-22.5,0-39.66,10.36a70.57,70.57,0,0,0-26.63,28.71q-9.48,18.35-9.48,42,0,22.5,9.77,40.85a74.75,74.75,0,0,0,26.93,29q17.18,10.65,39.07,10.65a99.21,99.21,0,0,0,28.41-3.85,81.24,81.24,0,0,0,24-11.54,107.61,107.61,0,0,0,20.42-18.94L337.29,1038h0q-20.16,25.45-56,40.26A199.13,199.13,0,0,1,204.73,1093h0q-45.58,0-81.69-21.31a155.71,155.71,0,0,1-57.12-58.34q-21-37-21-83.77t21-83.75A155.82,155.82,0,0,1,123,787.6q36.1-21.3,81.69-21.31,42,0,77.25,14.8t55.92,41.41Zm341,23q21.9,36.67,21.91,84t-21.91,84.06a158.5,158.5,0,0,1-60.08,58q-38.19,21.4-87.32,21.39t-87.3-21.31a160.7,160.7,0,0,1-60.38-58q-22.2-36.69-22.2-84.06t22.2-84a161,161,0,0,1,60.38-58q38.18-21.3,87.3-21.31T618.8,787.6a158.86,158.86,0,0,1,60.08,58Zm-74.63,84.11q.59-23.65-8.87-42.32a73.68,73.68,0,0,0-26-29.3q-16.59-10.7-37.9-10.69T493.3,858.05A72.82,72.82,0,0,0,467,887.4q-9.5,18.65-8.89,42.32-.58,23.68,8.89,42a73.21,73.21,0,0,0,26.33,29q16.85,10.68,38.15,10.68h0q21.32,0,37.9-10.65a74.16,74.16,0,0,0,26-29q9.45-18.4,8.87-42Zm438.07-84.42q18.35,37,18.36,84.35,0,48-18,85t-49.43,58q-31.43,21-71.08,21a142.08,142.08,0,0,1-76.06-21.91A102.9,102.9,0,0,1,824,1053.05l-2.45,33.53h-88.2V649.09h95.31v156a105.21,105.21,0,0,1,19.52-16.64,133.6,133.6,0,0,1,33.75-16.27,122.18,122.18,0,0,1,37.89-5.93q40.84,0,72.51,21t50,58Zm-74.57,84.38q0-24.85-8.59-43.8t-24.55-29q-16-10.05-37.3-10.06-21.9,0-37.88,10.06t-24.87,29q-8.87,19-8.88,43.8,0,25.47,8.88,44.1a71.3,71.3,0,0,0,24.87,29.31q16,10.65,37.88,10.65,21.3,0,37.3-10.65a69,69,0,0,0,24.55-29.31q8.63-18.63,8.61-44.1Zm367.6-156.87h94.11v314.34h-95.89v-37.46a116.64,116.64,0,0,1-20.13,18.51,128.77,128.77,0,0,1-34.32,17.75,123.11,123.11,0,0,1-40.27,6.52q-39.64,0-70.73-21t-49.44-58q-18.33-37-18.34-83.77,0-47.94,18.34-84.64T1169,787.31q32-21,72.81-21A124.27,124.27,0,0,1,1283,772.8a108.49,108.49,0,0,1,32.85,18.06,119.44,119.44,0,0,1,19.5,20Zm-7.7,201q8.88-18.63,8.88-44.1t-8.88-44.1q-8.87-18.65-24.86-29t-37.88-10.36q-21.32,0-37,10.36t-24.57,29q-8.88,18.66-8.88,44.1t8.88,44.1q8.88,18.66,24.57,28.71t37,10.07q21.87,0,37.88-10.07t24.88-28.74Zm156.27,113.37h94.71v-438H1483.9ZM1792.28,829.4h64.8V742h-64.8V659.59h0V649.4h-94.71V742h-65.16v87.4h65.16v258h94.71v-9.6h0Zm146.84,172.2q-13.61-13.92-37.87-13.92-22.5,0-36.71,14.8T1850.33,1041q0,25.45,13.33,39.07t37.59,13.62q23.07,0,37.28-14.8t14.21-37.89q0-25.49-13.62-39.4Z"/></svg>