<svg id="Calque_1" data-name="Calque 1" xmlns="http://www.w3.org/2000/svg" xmlns:xlink="http://www.w3.org/1999/xlink" viewBox="0 0 2000 2000"><defs><style>.cls-1{fill:url(#Nouvelle_nuance_de_dégradé_1);}</style><linearGradient id="Nouvelle_nuance_de_dégradé_1" x1="502.31" y1="1458.73" x2="1551.66" y2="409.38" gradientUnits="userSpaceOnUse"><stop offset="0" stop-color="#591ce6"/><stop offset="0.08" stop-color="#5d1ee4"/><stop offset="0.16" stop-color="#6a22dd"/><stop offset="0.24" stop-color="#7e2ad1"/><stop offset="0.32" stop-color="#9b35c1"/><stop offset="0.4" stop-color="#c144ac"/><stop offset="0.48" stop-color="#ee5593"/><stop offset="0.5" stop-color="#f9598d"/><stop offset="0.57" stop-color="#fa6682"/><stop offset="0.72" stop-color="#fa7a70"/><stop offset="0.86" stop-color="#fb8765"/><stop offset="1" stop-color="#fb8b61"/></linearGradient></defs><path class="cls-1" d="M337.86,823.1a0,0,0,0,1,0,.07l-51.47,61.52a122.74,122.74,0,0,0-19.53-17.75,93.25,93.25,0,0,0-24.87-13,85.86,85.86,0,0,0-28.41-4.74q-22.5,0-39.66,10.36a70.57,70.57,0,0,0-26.63,28.71q-9.48,18.35-9.48,42,0,22.5,9.77,40.85a74.82,74.82,0,0,0,26.93,29q17.18,10.65,39.07,10.65a99.21,99.21,0,0,0,28.41-3.85,81.24,81.24,0,0,0,24-11.54,107.61,107.61,0,0,0,20.42-18.94l50.88,62.12h0q-20.16,25.45-56,40.26a199,199,0,0,1-76.58,14.82h0q-45.58,0-81.69-21.31A155.71,155.71,0,0,1,65.91,1014q-21-37-21-83.77t21-83.75A155.84,155.84,0,0,1,123,788.2q36.1-21.3,81.69-21.31,42,0,77.25,14.8T337.86,823.1Zm341,23.1q21.9,36.67,21.91,84t-21.91,84.06a158.5,158.5,0,0,1-60.08,58q-38.19,21.4-87.32,21.39t-87.3-21.31a160.7,160.7,0,0,1-60.38-58q-22.2-36.69-22.2-84.06t22.2-84a161,161,0,0,1,60.38-58Q482.36,767,531.48,767T618.8,788.2A158.84,158.84,0,0,1,678.88,846.2Zm-74.63,84.11q.59-23.65-8.87-42.32a73.68,73.68,0,0,0-26-29.3Q552.79,848,531.48,848T493.3,858.65A72.82,72.82,0,0,0,467,888q-9.5,18.64-8.89,42.32-.58,23.68,8.89,42a73.29,73.29,0,0,0,26.33,29Q510.18,1012,531.48,1012v0q21.32,0,37.9-10.65a74.16,74.16,0,0,0,26-29Q604.83,954,604.25,930.31Zm438.07-84.42q18.35,37,18.36,84.35,0,48-18,85t-49.43,58q-31.43,21-71.08,21a142.05,142.05,0,0,1-76.06-21.91A102.86,102.86,0,0,1,824,1053.65l-2.45,33.53h-88.2V649.69h95.31v156a105.26,105.26,0,0,1,19.52-16.64,133.6,133.6,0,0,1,33.75-16.27,122.47,122.47,0,0,1,37.89-5.93q40.85,0,72.51,21T1042.32,845.89Zm-74.57,84.38q0-24.85-8.59-43.8t-24.55-29q-16-10.05-37.3-10.06-21.9,0-37.88,10.06t-24.87,29q-8.87,19-8.88,43.8,0,25.47,8.88,44.1a71.23,71.23,0,0,0,24.87,29.31q16,10.65,37.88,10.65,21.3,0,37.3-10.65a69,69,0,0,0,24.55-29.31Q967.76,955.74,967.75,930.27Zm367.6-156.87h94.11v314.34h-95.89v-37.46a116.67,116.67,0,0,1-20.13,18.51,128.77,128.77,0,0,1-34.32,17.75,123.11,123.11,0,0,1-40.27,6.52q-39.64,0-70.73-21t-49.44-58q-18.33-37-18.34-83.77,0-47.94,18.34-84.64T1169,787.91q32-21,72.81-21A124.27,124.27,0,0,1,1283,773.4a108.49,108.49,0,0,1,32.85,18.06,119.54,119.54,0,0,1,19.5,20Zm-7.7,201q8.88-18.63,8.88-44.1t-8.88-44.1q-8.87-18.64-24.86-29t-37.88-10.36q-21.32,0-37,10.36t-24.57,29q-8.88,18.66-8.88,44.1t8.88,44.1q8.88,18.66,24.57,28.71t37,10.07q21.87,0,37.88-10.07T1327.65,974.37Zm156.27,113.37,94.71,0v-438h-94.71ZM1792.28,830h64.8V742.63h-64.8V660.19h0V650h-94.71v92.63h-65.16V830h65.16v258h94.71v-9.6h0Zm146.84,172.2q-13.61-13.92-37.87-13.92-22.5,0-36.71,14.8t-14.21,38.48q0,25.45,13.33,39.07t37.59,13.62q23.07,0,37.28-14.8t14.21-37.89Q1952.73,1016.12,1939.12,1002.2Z"/></svg>