<svg xmlns="http://www.w3.org/2000/svg" viewBox="0 0 234.28 235.72"><defs><style>.cls-1{fill:#fff;}.cls-2{fill:#1d1d1b;}</style></defs><g id="Layer_2" data-name="Layer 2"><g id="Calque_1" data-name="Calque 1"><path class="cls-1" d="M220.52,32.27l-206.76-20L33.69,159.85l108.83,6.53,38.1,30L174,168.26l26.63,1.6Z"/><path class="cls-2" d="M34.89,189.92h3.54v18.75h-2V193.22c0-.8,0-1.57,0-2.37h-.05c-.22,1.1-.39,1.8-.56,2.52L32,208.67H29.6l-3.82-15.52c-.17-.65-.31-1.28-.53-2.3H25.2c0,.8.05,1.62.05,2.42v15.4h-2V189.92H26.8l3.57,14.62a16.84,16.84,0,0,1,.39,2.78h0a25.94,25.94,0,0,1,.46-2.8Z"/><path class="cls-2" d="M47.11,189.92h2.67l5.12,18.75H52.67l-1.44-5.4H45.48l-1.34,5.4H41.91Zm1.31,1.5h-.05l-2.4,10h4.8Z"/><path class="cls-2" d="M60.61,208.67h-2V189.92h4.69c3.81,0,6.24,1,6.12,5.35a4,4,0,0,1-3.5,4.07v0c2.36.23,2.94,1,3.23,3.5.07,1.4.19,2.78.39,4.18.07.35.22,1.17.7,1.17v.43H67.87a17.58,17.58,0,0,1-.63-4.78c0-1.87-.73-3.47-3.11-3.47H60.61Zm0-10.12h3.18c.94,0,3.57-.18,3.52-3.45s-2.5-3.3-3.86-3.3H60.61Z"/><path class="cls-2" d="M74.62,208.67V189.92h2v9.62h0l6.58-9.62h2.53L80,197.77l6,10.9H83.48l-4.93-9-1.89,2.55v6.5Z"/><path class="cls-2" d="M89.36,208.67V189.92h9.11v1.88H91.38V198H98v1.88H91.38v6.92h7.13v1.88Z"/><path class="cls-2" d="M101.43,189.92h11.44v1.88h-4.71v16.87h-2V191.8h-4.71Z"/><path class="cls-2" d="M117,208.67V189.92h2v18.75Z"/><path class="cls-2" d="M133.63,189.92h2v18.75h-3.3l-5.09-15a15.52,15.52,0,0,1-.69-2.82h0c0,1,0,1.92,0,2.87v14.95h-2V189.92h3.28L133,205.27a21.08,21.08,0,0,1,.63,2h.05c0-.68-.05-1.4-.05-2.1Z"/><path class="cls-2" d="M151.79,208.82h-1.55v-2.93h-.05a4.07,4.07,0,0,1-4.17,3.23c-5.42,0-5.83-5.55-5.83-10s.75-9.62,6-9.62c3.47,0,5.46,2.32,5.41,5.82h-2c0-2.3-1-3.9-3.27-4-4-.07-4,4.63-4,7.82,0,2.85-.15,7.83,3.44,8,3.74.18,4.08-3.35,4.06-6.32h-4.06V199h6.07Z"/><path class="cls-2" d="M31.59,222.14c-.05-2.22-.76-4.12-3.28-4.12-3.5,0-3.55,5.12-3.55,7.6s-.14,8.22,3.55,8.22c2.4,0,2.91-2,3.16-4.07,0-.43.07-.85.12-1.28h2c-.05.38-.05.78-.1,1.15a7.36,7.36,0,0,1-1.06,4,4.57,4.57,0,0,1-4,2.1c-5.61,0-5.8-5.58-5.8-10.05,0-4.22.6-9.52,5.77-9.52,3.45,0,5.25,2.65,5.15,6Z"/><path class="cls-2" d="M43.73,216.15c5.32,0,6,5,6,9.34,0,5.2-.68,10.23-6,10.23s-6-5-6-10.23C37.68,221.2,38.32,216.15,43.73,216.15Zm-.1,1.87c-3.11,0-3.88,3.35-3.86,7.52,0,5.43.56,8.3,3.91,8.3s3.88-2.87,3.91-8.3C47.61,221.37,46.84,218,43.63,218Z"/><path class="cls-2" d="M66,216.52h3.54v18.75h-2V219.82c0-.8,0-1.57,0-2.37h0c-.22,1.1-.39,1.8-.56,2.52l-3.81,15.3H60.65l-3.81-15.52c-.17-.65-.31-1.28-.53-2.3h-.05c0,.8.05,1.62.05,2.42v15.4h-2V216.52h3.57l3.57,14.62a16.84,16.84,0,0,1,.39,2.78h0a25.94,25.94,0,0,1,.46-2.8Z"/><path class="cls-2" d="M86.2,216.52h3.55v18.75h-2V219.82c0-.8,0-1.57,0-2.37h0c-.22,1.1-.39,1.8-.56,2.52l-3.81,15.3h-2.4L77.1,219.75c-.17-.65-.32-1.28-.54-2.3h0c0,.8,0,1.62,0,2.42v15.4h-2V216.52h3.57l3.57,14.62a17,17,0,0,1,.38,2.78h.05c.12-.95.25-1.88.46-2.8Z"/><path class="cls-2" d="M94.92,216.52h2V230c0,1.48.22,3.85,3.45,3.85s3.47-2.37,3.44-3.85V216.52h2v14.22c0,3.35-2.16,5-5.46,5s-5.47-1.63-5.47-5Z"/><path class="cls-2" d="M120.1,216.52h2v18.75h-3.3l-5.1-15a15.56,15.56,0,0,1-.68-2.82H113c0,1,.05,1.92.05,2.87v15h-2V216.52h3.28l5.17,15.35a21.08,21.08,0,0,1,.63,2h.05c0-.68-.05-1.4-.05-2.1Z"/><path class="cls-2" d="M127.73,235.27V216.52h2v18.75Z"/><path class="cls-2" d="M143.66,222.14c0-2.22-.75-4.12-3.28-4.12-3.49,0-3.54,5.12-3.54,7.6s-.15,8.22,3.54,8.22c2.41,0,2.92-2,3.16-4.07.05-.43.07-.85.12-1.28h2c0,.38,0,.78-.09,1.15a7.37,7.37,0,0,1-1.07,4,4.57,4.57,0,0,1-4,2.1c-5.61,0-5.8-5.58-5.8-10.05,0-4.22.61-9.52,5.78-9.52,3.45,0,5.24,2.65,5.14,6Z"/><path class="cls-2" d="M153.79,216.52h2.67l5.12,18.75h-2.23l-1.44-5.4h-5.75l-1.33,5.4h-2.24Zm1.31,1.5h0l-2.4,10h4.8Z"/><path class="cls-2" d="M162.22,216.52h11.43v1.88h-4.71v16.87h-2V218.4h-4.71Z"/><path class="cls-2" d="M177.73,235.27V216.52h2v18.75Z"/><path class="cls-2" d="M190.94,216.15c5.32,0,6,5,5.95,9.34,0,5.2-.68,10.23-6,10.23s-5.94-5-6-10.23C184.9,221.2,185.53,216.15,190.94,216.15Zm-.09,1.87c-3.11,0-3.89,3.35-3.86,7.52,0,5.43.55,8.3,3.9,8.3s3.89-2.87,3.91-8.3C194.83,221.37,194.05,218,190.85,218Z"/><path class="cls-2" d="M210.61,216.52h2v18.75h-3.3l-5.1-15a15.56,15.56,0,0,1-.68-2.82h-.05c0,1,.05,1.92.05,2.87v15h-2V216.52h3.28L210,231.87a21.08,21.08,0,0,1,.63,2h0c0-.68,0-1.4,0-2.1Z"/><path class="cls-2" d="M52.34,95a9,9,0,0,0-6.85,3,10,10,0,0,0-2.92,7.19v20.59A9.94,9.94,0,0,0,45.46,133l.07.06A9.46,9.46,0,0,0,59.22,133a10,10,0,0,0,2.9-7.26V105.18A10.08,10.08,0,0,0,59.19,98,9,9,0,0,0,52.34,95Z"/><path class="cls-2" d="M234.28,22.68,0,0,22.58,167.24l123.32,7.4,43.17,34-7.54-31.9,30.17,1.81ZM70.67,143.76v.81H62.12v-2.8a17.5,17.5,0,0,1-9.78,2.8,17.56,17.56,0,0,1-13-5.49A18.43,18.43,0,0,1,34,125.77V105.18A18.56,18.56,0,0,1,39.31,92a17.39,17.39,0,0,1,13-5.6,16.93,16.93,0,0,1,8.45,2.14c.45.25.89.53,1.33.82V64.15A10,10,0,0,0,59.19,57a9.26,9.26,0,0,0-13.7,0,10,10,0,0,0-2.92,7.18V77.38H34V64.15A18.51,18.51,0,0,1,39.32,51a17.93,17.93,0,0,1,26.05,0,18.55,18.55,0,0,1,5.3,13.19ZM115.5,136v8.58H78.56l27.7-90.64H80.43V45.35h37.14L89.86,136Zm48.29-10.22a18.32,18.32,0,0,1-5.33,13.43,18.4,18.4,0,0,1-26,0,18.33,18.33,0,0,1-5.34-13.43V45.35h8.55v80.42a10,10,0,0,0,2.9,7.26,9.48,9.48,0,0,0,13.76,0,10,10,0,0,0,2.89-7.26V45.35h8.55Zm38.14-68.65a8.75,8.75,0,0,0-6.8-3.19,9,9,0,0,0-6.86,3,10.07,10.07,0,0,0-2.92,7.18v80.42H176.8V45.35h8.55v3.13c.46-.3.92-.6,1.4-.88A16.6,16.6,0,0,1,202.33,47a19.23,19.23,0,0,1,5.86,4.39,20,20,0,0,1,3.89,6.31,20.58,20.58,0,0,1,1.37,7.44v2.7H204.9v-2.7A11.47,11.47,0,0,0,201.93,57.12Z"/></g></g></svg>