<svg xmlns="http://www.w3.org/2000/svg" viewBox="0 0 234.28 208.67"><defs><style>.cls-1{fill:#fff;}.cls-2{fill:#1d1d1b;}</style></defs><g id="Layer_2" data-name="Layer 2"><g id="Calque_1" data-name="Calque 1"><polygon class="cls-1" points="223.46 30.22 10.82 9.64 31.32 161.43 143.25 168.14 182.43 199.03 175.58 170.08 202.97 171.72 223.46 30.22"/><path class="cls-2" d="M52.34,95a9,9,0,0,0-6.85,3,10,10,0,0,0-2.92,7.19v20.59A9.94,9.94,0,0,0,45.46,133l.07.06A9.46,9.46,0,0,0,59.22,133a10,10,0,0,0,2.9-7.26V105.18A10.08,10.08,0,0,0,59.19,98,9,9,0,0,0,52.34,95Z"/><path class="cls-2" d="M234.28,22.68,0,0,22.58,167.24l123.32,7.4,43.17,34-7.54-31.9,30.17,1.81ZM70.67,143.76v.81H62.12v-2.8a17.5,17.5,0,0,1-9.78,2.8,17.56,17.56,0,0,1-13-5.49A18.43,18.43,0,0,1,34,125.77V105.18A18.56,18.56,0,0,1,39.31,92a17.39,17.39,0,0,1,13-5.6,16.93,16.93,0,0,1,8.45,2.14c.45.25.89.53,1.33.82V64.15A10,10,0,0,0,59.19,57a9.26,9.26,0,0,0-13.7,0,10,10,0,0,0-2.92,7.18V77.38H34V64.15A18.51,18.51,0,0,1,39.32,51a17.93,17.93,0,0,1,26.05,0,18.55,18.55,0,0,1,5.3,13.19ZM115.5,136v8.58H78.56l27.7-90.64H80.43V45.35h37.14L89.86,136Zm48.29-10.22a18.32,18.32,0,0,1-5.33,13.43,18.4,18.4,0,0,1-26,0,18.33,18.33,0,0,1-5.34-13.43V45.35h8.55v80.42a10,10,0,0,0,2.9,7.26,9.48,9.48,0,0,0,13.76,0,10,10,0,0,0,2.89-7.26V45.35h8.55Zm38.14-68.65a8.75,8.75,0,0,0-6.8-3.19,9,9,0,0,0-6.86,3,10.07,10.07,0,0,0-2.92,7.18v80.42H176.8V45.35h8.55v3.13c.46-.3.92-.6,1.4-.88A16.6,16.6,0,0,1,202.33,47a19.23,19.23,0,0,1,5.86,4.39,20,20,0,0,1,3.89,6.31,20.58,20.58,0,0,1,1.37,7.44v2.7H204.9v-2.7A11.47,11.47,0,0,0,201.93,57.12Z"/></g></g></svg>